HIERARCHY
ROOT hip
{
	OFFSET 0.000000 0.000000 0.000000
	CHANNELS 6 Xposition Yposition Zposition Xrotation Zrotation Yrotation 
	JOINT abdomen
	{
		OFFSET 0.000000 3.422050 0.000000
		CHANNELS 3 Xrotation Zrotation Yrotation 
		JOINT chest
		{
			OFFSET 0.000000 8.486693 -0.684411
			CHANNELS 3 Xrotation Zrotation Yrotation 
			JOINT neck
			{
				OFFSET 0.000000 10.266162 -0.273764
				CHANNELS 3 Xrotation Zrotation Yrotation 
				JOINT head
				{
					OFFSET 0.000000 3.148285 0.000000
					CHANNELS 3 Xrotation Zrotation Yrotation 
					End Site
					{
						OFFSET 0.000000 3.148289 0.000000
					}
				}
			}
			JOINT lCollar
			{
				OFFSET 3.422053 6.707223 -0.821293
				CHANNELS 3 Yrotation Zrotation Xrotation 
				JOINT lShldr
				{
					OFFSET 3.285171 0.000000 0.000000
					CHANNELS 3 Zrotation Yrotation Xrotation 
					JOINT lForeArm
					{
						OFFSET 10.129278 0.000000 0.000000
						CHANNELS 3 Yrotation Zrotation Xrotation 
						JOINT lHand
						{
							OFFSET 8.486692 0.000000 0.000000
							CHANNELS 3 Zrotation Yrotation Xrotation 
							End Site
							{
								OFFSET 4.106464 0.000000 0.000000
							}
						}
					}
				}
			}
			JOINT rCollar
			{
				OFFSET -3.558935 6.707223 -0.821293
				CHANNELS 3 Yrotation Zrotation Xrotation 
				JOINT rShldr
				{
					OFFSET -3.148289 0.000000 0.000000
					CHANNELS 3 Zrotation Yrotation Xrotation 
					JOINT rForeArm
					{
						OFFSET -10.266159 0.000000 0.000000
						CHANNELS 3 Yrotation Zrotation Xrotation 
						JOINT rHand
						{
							OFFSET -8.349810 0.000000 0.000000
							CHANNELS 3 Zrotation Yrotation Xrotation 
							End Site
							{
								OFFSET -4.106464 0.000000 0.000000
							}
						}
					}
				}
			}
		}
	}
	JOINT lThigh
	{
		OFFSET 5.338403 -1.642589 1.368821
		CHANNELS 3 Xrotation Zrotation Yrotation 
		JOINT lShin
		{
			OFFSET -2.053232 -20.121670 0.000000
			CHANNELS 3 Xrotation Zrotation Yrotation 
			JOINT lFoot
			{
				OFFSET 0.000000 -19.300380 -1.231939
				CHANNELS 3 Xrotation Yrotation Zrotation 
				End Site
				{
					OFFSET 0.000000 -2.463878 4.653993
				}
			}
		}
	}
	JOINT rThigh
	{
		OFFSET -5.338403 -1.642589 1.368821
		CHANNELS 3 Xrotation Zrotation Yrotation 
		JOINT rShin
		{
			OFFSET 2.053232 -20.121670 0.000000
			CHANNELS 3 Xrotation Zrotation Yrotation 
			JOINT rFoot
			{
				OFFSET 0.000000 -19.300380 -1.231939
				CHANNELS 3 Xrotation Yrotation Zrotation 
				End Site
				{
					OFFSET 0.000000 -2.463878 4.653993
				}
			}
		}
	}
}
MOTION
Frames: 20
Frame Time: 0.049897
3.937916 21.526112 5.926380 0.000000 0.000000 -41.000301 -1.410386 4.905664 0.210876 25.631111 1.145701 2.390174 20.996786 0.000000 0.000000 16.998995 2.997137 -17.002583 2.184243 -36.544212 4.163931 -30.974482 -10.395336 -20.941187 1.942333 -31.900557 24.822720 19.998167 0.000000 0.000000 7.486576 -2.957084 0.688755 27.031639 -15.903945 -1.343228 52.628185 12.597331 -40.467358 13.190926 5.156630 -15.516437 -21.213114 18.766693 4.461598 118.012299 10.037420 -5.194992 55.155239 16.212271 5.573445 -21.212612 -18.770821 -4.464533 118.012230 -10.036211 5.190171 55.155178 -16.217051 -5.574986 
3.937916 21.526112 5.926380 0.000000 0.000000 -41.000301 -1.410386 4.905664 0.210876 25.486830 1.191578 2.386534 20.996786 0.000000 0.000000 16.998995 2.997137 -17.002583 2.184243 -36.544212 4.163931 -30.974482 -10.395336 -20.941187 1.356321 -31.582062 24.614105 19.998167 0.000000 0.000000 7.423954 -2.911670 0.687606 27.324516 -15.578844 -0.997630 53.112560 12.418275 -40.247341 13.355784 5.109912 -15.304321 -21.213114 18.766693 4.461598 118.012299 10.037420 -5.194992 55.155239 16.212271 5.573445 -21.212612 -18.770821 -4.464533 118.012230 -10.036211 5.190171 55.155178 -16.217051 -5.574986 
3.937916 21.526112 5.926380 0.000000 0.000000 -41.000301 -1.410386 4.905664 0.210876 25.342522 1.237450 2.382777 20.996786 0.000000 0.000000 16.998995 2.997137 -17.002583 2.184243 -36.544212 4.163931 -30.974482 -10.395336 -20.941187 0.772448 -31.261110 24.409613 19.998167 0.000000 0.000000 7.361331 -2.866255 0.686508 27.619600 -15.254772 -0.650117 53.598316 12.240674 -40.025463 13.520426 5.062601 -15.092410 -21.213114 18.766693 4.461598 118.012299 10.037420 -5.194992 55.155239 16.212271 5.573445 -21.212612 -18.770821 -4.464533 118.012230 -10.036211 5.190171 55.155178 -16.217051 -5.574986 
3.937916 21.526112 5.926380 0.000000 0.000000 -41.000301 -1.410386 4.905664 0.210876 25.198195 1.283320 2.378906 20.996786 0.000000 0.000000 16.998995 2.997137 -17.002583 2.184243 -36.544212 4.163931 -30.974482 -10.395336 -20.941187 0.190712 -30.937738 24.209221 19.998167 0.000000 0.000000 7.298711 -2.820836 0.685459 27.916876 -14.931764 -0.300685 54.085438 12.064559 -39.801739 13.684834 5.014694 -14.880701 -21.213114 18.766693 4.461598 118.012299 10.037420 -5.194992 55.155239 16.212271 5.573445 -21.212612 -18.770821 -4.464533 118.012230 -10.036211 5.190171 55.155178 -16.217051 -5.574986 
3.937916 21.526112 5.926380 0.000000 0.000000 -41.000301 -1.410386 4.905664 0.210876 25.053835 1.329185 2.374916 20.996786 0.000000 0.000000 16.998995 2.997137 -17.002583 2.184243 -36.544212 4.163931 -30.974482 -10.395336 -20.941187 -0.388889 -30.612000 24.012949 19.998167 0.000000 0.000000 7.236090 -2.775414 0.684459 28.216354 -14.609879 0.050661 54.573910 11.889963 -39.576191 13.849010 4.966197 -14.669206 -21.213114 18.766693 4.461598 118.012299 10.037420 -5.194992 55.155239 16.212271 5.573445 -21.212612 -18.770821 -4.464533 118.012230 -10.036211 5.190171 55.155178 -16.217051 -5.574986 
3.937916 21.526112 5.926380 0.000000 0.000000 -41.000301 -1.410386 4.905664 0.210876 24.909456 1.375046 2.370812 20.996786 0.000000 0.000000 16.998995 2.997137 -17.002583 2.184243 -36.544212 4.163931 -30.974482 -10.395336 -20.941187 -0.966364 -30.283945 23.820793 19.998167 0.000000 0.000000 7.173471 -2.729990 0.683509 28.518007 -14.289143 0.403926 55.063725 11.716929 -39.348835 14.012954 4.917109 -14.457919 -21.213114 18.766693 4.461598 118.012299 10.037420 -5.194992 55.155239 16.212271 5.573445 -21.212612 -18.770821 -4.464533 118.012230 -10.036211 5.190171 55.155178 -16.217051 -5.574986 
3.937916 21.526112 5.926380 0.000000 0.000000 -41.000301 -1.410386 4.905664 0.210876 24.765055 1.420903 2.366591 20.996786 0.000000 0.000000 16.998995 2.997137 -17.002583 2.184243 -36.544212 4.163931 -30.974482 -10.395336 -20.941187 -1.541718 -29.953621 23.632755 19.998167 0.000000 0.000000 7.110855 -2.684565 0.682610 28.821856 -13.969618 0.759106 55.554848 11.545482 -39.119678 14.176648 4.867431 -14.246846 -21.213114 18.766693 4.461598 118.012299 10.037420 -5.194992 55.155239 16.212271 5.573445 -21.212612 -18.770821 -4.464533 118.012230 -10.036211 5.190171 55.155178 -16.217051 -5.574986 
3.937916 21.526112 5.926380 0.000000 0.000000 -41.000301 -1.410386 4.905664 0.210876 24.620619 1.466753 2.362253 20.996786 0.000000 0.000000 16.998995 2.997137 -17.002583 2.184243 -36.544212 4.163931 -30.974482 -10.395336 -20.941187 -2.114957 -29.621090 23.448841 19.998167 0.000000 0.000000 7.048239 -2.639137 0.681759 29.127892 -13.651343 1.116199 56.047260 11.375656 -38.888752 14.340107 4.817169 -14.035992 -21.213114 18.766693 4.461598 118.012299 10.037420 -5.194992 55.155239 16.212271 5.573445 -21.212612 -18.770821 -4.464533 118.012230 -10.036211 5.190171 55.155178 -16.217051 -5.574986 
3.937916 21.526112 5.926380 0.000000 0.000000 -41.000301 -1.410386 4.905664 0.210876 24.476171 1.512598 2.357799 20.996786 0.000000 0.000000 16.998997 2.997137 -17.002583 2.184243 -36.544212 4.163931 -30.974482 -10.395336 -20.941187 -2.686094 -29.286386 23.269037 19.998167 0.000000 0.000000 6.985625 -2.593705 0.680959 29.436108 -13.334362 1.475204 56.540970 11.207490 -38.656078 14.503314 4.766323 -13.825364 -21.213114 18.766693 4.461598 118.012299 10.037420 -5.194992 55.155239 16.212271 5.573445 -21.212612 -18.770821 -4.464533 118.012230 -10.036211 5.190171 55.155178 -16.217051 -5.574986 
3.937916 21.526112 5.926380 0.000000 0.000000 -41.000301 -1.410386 4.905664 0.210876 24.331703 1.558437 2.353230 20.996786 0.000000 0.000000 16.998995 2.997137 -17.002583 2.184243 -36.544212 4.163931 -30.974482 -10.395336 -20.941187 -3.255134 -28.949570 23.093340 19.998167 0.000000 0.000000 6.923009 -2.548272 0.680208 29.746492 -13.018723 1.836120 57.035931 11.041016 -38.421665 14.666270 4.714895 -13.614959 -21.213114 18.766693 4.461598 118.012299 10.037420 -5.194992 55.155239 16.212271 5.573445 -21.212612 -18.770821 -4.464533 118.012230 -10.036211 5.190171 55.155178 -16.217051 -5.574986 
3.937916 21.526112 5.926380 0.000000 0.000000 -41.000301 -1.410386 4.905664 0.210876 24.187202 1.604269 2.348544 20.996786 0.000000 0.000000 16.998997 2.997138 -17.002584 2.184243 -36.544212 4.163931 -30.974482 -10.395336 -20.941187 -3.822089 -28.610691 22.921759 19.998167 0.000000 0.000000 6.860396 -2.502837 0.679507 30.059059 -12.704473 2.198940 57.532112 10.876260 -38.185532 14.828976 4.662889 -13.404787 -21.213114 18.766693 4.461598 118.012299 10.037420 -5.194992 55.155239 16.212271 5.573445 -21.212612 -18.770821 -4.464533 118.012230 -10.036211 5.190171 55.155178 -16.217051 -5.574986 
3.937916 21.526112 5.926380 0.000000 0.000000 -41.000301 -1.410386 4.905664 0.210876 24.042685 1.650095 2.343742 20.996786 0.000000 0.000000 16.998995 2.997137 -17.002583 2.184243 -36.544212 4.163931 -30.974482 -10.395336 -20.941187 -4.386971 -28.269793 22.754271 19.998167 0.000000 0.000000 6.797784 -2.457400 0.678855 30.373777 -12.391655 2.563662 58.029514 10.713261 -37.947693 14.991427 4.610305 -13.194846 -21.213114 18.766693 4.461598 118.012299 10.037420 -5.194992 55.155239 16.212271 5.573445 -21.212612 -18.770821 -4.464533 118.012230 -10.036211 5.190171 55.155178 -16.217051 -5.574986 
3.937916 21.526112 5.926380 0.000000 0.000000 -41.000301 -1.410386 4.905664 0.210876 23.898142 1.695912 2.338823 20.996786 0.000000 0.000000 16.998997 2.997138 -17.002584 2.184243 -36.544209 4.163931 -30.974482 -10.395336 -20.941187 -4.949791 -27.926937 22.590879 19.998167 0.000000 0.000000 6.735172 -2.411960 0.678254 30.690649 -12.080314 2.930280 58.528118 10.552052 -37.708195 15.153610 4.557146 -12.985141 -21.213114 18.766693 4.461598 118.012299 10.037420 -5.194992 55.155239 16.212271 5.573445 -21.212612 -18.770821 -4.464533 118.012230 -10.036211 5.190171 55.155178 -16.217051 -5.574986 
3.937916 21.526112 5.926380 0.000000 0.000000 -41.000301 -1.410386 4.905664 0.210876 23.753578 1.741721 2.333788 20.996786 0.000000 0.000000 16.998995 2.997137 -17.002581 2.184243 -36.544212 4.163931 -30.974482 -10.395336 -20.941187 -5.510562 -27.582176 22.431583 19.998167 0.000000 0.000000 6.672564 -2.366520 0.677702 31.009678 -11.770500 3.298790 59.027874 10.392658 -37.467030 15.315533 4.503415 -12.775677 -21.213114 18.766693 4.461598 118.012299 10.037420 -5.194992 55.155239 16.212271 5.573445 -21.212612 -18.770821 -4.464533 118.012230 -10.036211 5.190171 55.155178 -16.217051 -5.574986 
3.937916 21.526112 5.926380 0.000000 0.000000 -41.000301 -1.410386 4.905664 0.210876 23.608999 1.787522 2.328638 20.996786 0.000000 0.000000 16.998997 2.997137 -17.002583 2.184243 -36.544212 4.163931 -30.974482 -10.395336 -20.941187 -6.069298 -27.235561 22.276369 19.998167 0.000000 0.000000 6.609952 -2.321077 0.677199 31.330843 -11.462256 3.669187 59.528790 10.235118 -37.224243 15.477185 4.449115 -12.566460 -21.213114 18.766693 4.461598 118.012299 10.037420 -5.194992 55.155239 16.212271 5.573445 -21.212612 -18.770821 -4.464533 118.012230 -10.036211 5.190171 55.155178 -16.217051 -5.574986 
3.937916 21.526112 5.926380 0.000000 0.000000 -41.000301 -1.410386 4.905664 0.210876 23.464392 1.833313 2.323370 20.996786 0.000000 0.000000 16.998995 2.997137 -17.002583 2.184243 -36.544216 4.163932 -30.974482 -10.395336 -20.941187 -6.626013 -26.887135 22.125217 19.998167 0.000000 0.000000 6.547346 -2.275633 0.676747 31.654142 -11.155630 4.041460 60.030819 10.079460 -36.979847 15.638569 4.394247 -12.357483 -21.213114 18.766693 4.461598 118.012299 10.037420 -5.194992 55.155239 16.212271 5.573445 -21.212612 -18.770821 -4.464533 118.012230 -10.036211 5.190171 55.155178 -16.217051 -5.574986 
3.937916 21.526112 5.926380 0.000000 0.000000 -41.000301 -1.410386 4.905664 0.210876 23.319765 1.879097 2.317986 20.996786 0.000000 0.000000 16.998995 2.997137 -17.002581 2.184243 -36.544212 4.163931 -30.974482 -10.395336 -20.941187 -7.180721 -26.536964 21.978134 19.998167 0.000000 0.000000 6.484736 -2.230187 0.676344 31.979561 -10.850667 4.415606 60.533939 9.925713 -36.733856 15.799676 4.338813 -12.148760 -21.213114 18.766693 4.461598 118.012299 10.037420 -5.194992 55.155239 16.212271 5.573445 -21.212612 -18.770821 -4.464533 118.012230 -10.036211 5.190171 55.155178 -16.217051 -5.574986 
3.937916 21.526112 5.926380 0.000000 0.000000 -41.000301 -1.410386 4.905664 0.210876 23.175119 1.924869 2.312487 20.996786 0.000000 0.000000 16.998997 2.997137 -17.002583 2.184243 -36.544209 4.163931 -30.974482 -10.395336 -20.941187 -7.733440 -26.185097 21.835106 19.998167 0.000000 0.000000 6.422130 -2.184740 0.675990 32.307098 -10.547417 4.791615 61.038128 9.773908 -36.486313 15.960509 4.282817 -11.940289 -21.213114 18.766693 4.461598 118.012299 10.037420 -5.194992 55.155239 16.212271 5.573445 -21.212612 -18.770821 -4.464533 118.012230 -10.036211 5.190171 55.155182 -16.217051 -5.574986 
3.937916 21.526112 5.926380 0.000000 0.000000 -41.000301 -1.410386 4.905664 0.210876 23.030458 1.970632 2.306872 20.996786 0.000000 0.000000 16.998995 2.997137 -17.002583 2.184243 -36.544216 4.163932 -30.974482 -10.395336 -20.941187 -8.284184 -25.831593 21.696121 19.998167 0.000000 0.000000 6.359525 -2.139292 0.675687 32.636745 -10.245919 5.169479 61.543373 9.624082 -36.237240 16.121058 4.226260 -11.732072 -21.213114 18.766693 4.461598 118.012299 10.037420 -5.194992 55.155239 16.212271 5.573445 -21.212612 -18.770821 -4.464533 118.012230 -10.036211 5.190171 55.155178 -16.217051 -5.574986 
3.937916 21.526112 5.926380 0.000000 0.000000 -41.000301 -1.410386 4.905664 0.210876 22.885771 2.016382 2.301139 20.996786 0.000000 0.000000 16.998993 2.997137 -17.002581 2.184243 -36.544212 4.163931 -30.974482 -10.395336 -20.941187 -8.832971 -25.476496 21.561165 19.998167 0.000000 0.000000 6.296921 -2.093843 0.675433 32.968468 -9.946220 5.549187 62.049633 9.476256 -35.986652 16.281319 4.169145 -11.524119 -21.213114 18.766693 4.461598 118.012299 10.037420 -5.194992 55.155239 16.212271 5.573445 -21.212612 -18.770821 -4.464533 118.012230 -10.036211 5.190171 55.155178 -16.217051 -5.574986 
